<?xml version="1.0" encoding="UTF-8" standalone="no"?>
<!-- Generator: Adobe Illustrator 19.0.0, SVG Export Plug-In . SVG Version: 6.00 Build 0)  -->

<svg
   xmlns:dc="http://purl.org/dc/elements/1.1/"
   xmlns:cc="http://creativecommons.org/ns#"
   xmlns:rdf="http://www.w3.org/1999/02/22-rdf-syntax-ns#"
   xmlns:svg="http://www.w3.org/2000/svg"
   xmlns="http://www.w3.org/2000/svg"
   xmlns:sodipodi="http://sodipodi.sourceforge.net/DTD/sodipodi-0.dtd"
   xmlns:inkscape="http://www.inkscape.org/namespaces/inkscape"
   version="1.1"
   id="Capa_1"
   x="0px"
   y="0px"
   viewBox="0 0 3000 1405.2198"
   xml:space="preserve"
   inkscape:version="0.91 r13725"
   sodipodi:docname="ENEL_Brand Guidelines_15012016-WEB.svg"
   width="3000"
   height="1405.2197"><title
     id="title4878">Enel Group</title><metadata
     id="metadata4603"><rdf:RDF><cc:Work
         rdf:about=""><dc:format>image/svg+xml</dc:format><dc:type
           rdf:resource="http://purl.org/dc/dcmitype/StillImage" /><dc:title>Enel Group</dc:title></cc:Work></rdf:RDF></metadata><defs
     id="defs4601" /><sodipodi:namedview
     pagecolor="#ffffff"
     bordercolor="#666666"
     borderopacity="1"
     objecttolerance="10"
     gridtolerance="10"
     guidetolerance="10"
     inkscape:pageopacity="0"
     inkscape:pageshadow="2"
     inkscape:window-width="1366"
     inkscape:window-height="715"
     id="namedview4599"
     showgrid="false"
     inkscape:showpageshadow="false"
     fit-margin-top="248.732"
     fit-margin-right="248.732"
     fit-margin-bottom="248.732"
     fit-margin-left="248.732"
     inkscape:zoom="0.18620446"
     inkscape:cx="1682.463"
     inkscape:cy="444.67543"
     inkscape:window-x="-8"
     inkscape:window-y="-8"
     inkscape:window-maximized="1"
     inkscape:current-layer="Capa_1" /><style
     type="text/css"
     id="style4137">
	.st0{clip-path:url(#SVGID_2_);}
	.st1{clip-path:url(#SVGID_4_);fill:url(#SVGID_5_);}
	.st2{clip-path:url(#SVGID_7_);fill:url(#SVGID_8_);}
	.st3{clip-path:url(#SVGID_10_);fill:url(#SVGID_11_);}
	.st4{clip-path:url(#SVGID_13_);fill:url(#SVGID_14_);}
	.st5{clip-path:url(#SVGID_16_);fill:url(#SVGID_17_);}
	.st6{clip-path:url(#SVGID_19_);fill:url(#SVGID_20_);}
	.st7{filter:url(#Adobe_OpacityMaskFilter);}
	.st8{clip-path:url(#SVGID_22_);}
	.st9{clip-path:url(#SVGID_25_);fill:url(#SVGID_26_);}
	.st10{clip-path:url(#SVGID_22_);mask:url(#SVGID_23_);fill:url(#SVGID_27_);}
	.st11{clip-path:url(#SVGID_29_);fill:url(#SVGID_30_);}
	.st12{clip-path:url(#SVGID_32_);fill:url(#SVGID_33_);}
	.st13{clip-path:url(#SVGID_35_);fill:url(#SVGID_36_);}
	.st14{clip-path:url(#SVGID_38_);fill:url(#SVGID_39_);}
	.st15{clip-path:url(#SVGID_41_);fill:url(#SVGID_42_);}
	.st16{clip-path:url(#SVGID_44_);fill:url(#SVGID_45_);}
	.st17{filter:url(#Adobe_OpacityMaskFilter_1_);}
	.st18{clip-path:url(#SVGID_47_);}
	.st19{clip-path:url(#SVGID_50_);fill:url(#SVGID_51_);}
	.st20{clip-path:url(#SVGID_47_);mask:url(#SVGID_48_);fill:url(#SVGID_52_);}
	.st21{clip-path:url(#SVGID_54_);fill:url(#SVGID_55_);}
	.st22{filter:url(#Adobe_OpacityMaskFilter_2_);}
	.st23{clip-path:url(#SVGID_57_);}
	.st24{clip-path:url(#SVGID_60_);fill:url(#SVGID_61_);}
	.st25{clip-path:url(#SVGID_57_);mask:url(#SVGID_58_);fill:url(#SVGID_62_);}
	.st26{clip-path:url(#SVGID_64_);fill:url(#SVGID_65_);}
	.st27{filter:url(#Adobe_OpacityMaskFilter_3_);}
	.st28{clip-path:url(#SVGID_67_);}
	.st29{clip-path:url(#SVGID_70_);fill:url(#SVGID_71_);}
	.st30{clip-path:url(#SVGID_67_);mask:url(#SVGID_68_);fill:url(#SVGID_72_);}
	.st31{filter:url(#Adobe_OpacityMaskFilter_4_);}
	.st32{clip-path:url(#SVGID_74_);}
	.st33{clip-path:url(#SVGID_77_);fill:url(#SVGID_78_);}
	.st34{clip-path:url(#SVGID_74_);mask:url(#SVGID_75_);fill:url(#SVGID_79_);}
	.st35{clip-path:url(#SVGID_2_);fill:#BCBCB6;}
</style><g
     id="g19253"
     style="fill:#000000"><g
       transform="matrix(6.145011,0,0,-6.145011,553.18031,861.46444)"
       id="g4940"
       style="fill:#000000" /><g
       transform="matrix(6.145011,0,0,-6.145011,1380.5524,469.87979)"
       id="g4944"
       style="fill:#000000" /><g
       transform="matrix(6.145011,0,0,-6.145011,2069.1151,861.46444)"
       id="g4952"
       style="fill:#000000" /><g
       id="g19249"
       style="fill:#000000"><g
         id="g4956"
         transform="matrix(6.145011,0,0,-6.145011,2552.4585,936.07421)"
         style="fill:#000000"><path
           id="path4958"
           style="fill:#000000;fill-opacity:1;fill-rule:nonzero;stroke:none"
           d="M -1.6214605e-6,-4.16233e-6 C -1.6214605e-6,-20.033004 11.699998,-29.903004 22.666998,-37.582004 l 9.686,14.418 c -9.054,6.34 -15.464,11.171 -15.464,23.16399983767 l 0,113.56700416233 -16.8889996214605,0 0,-113.56700416233 z M -78.656232,12.141515 l 61.915,0 0,16.889 c -4.573,26.571 -28.298,46.834 -55.766,46.834 -30.748998,0 -55.764998,-25.39 -55.764998,-56.6 0,-31.209 25.016,-56.601 55.764998,-56.601 14.774,0 28.697,5.806 39.202,16.347 1.897,1.902 3.676,3.963 5.289,6.124 l -13.538,10.0970002 c -1.133,-1.518 -2.382,-2.965 -3.712,-4.3 -7.314,-7.3370002 -16.988,-11.3790002 -27.241,-11.3790002 -21.437,0 -38.877998,17.8140002 -38.877998,39.712 0,21.897 17.440998,39.712 38.877998,39.712 18.139,0 34.246,-12.756 38.517,-29.946 l -44.666,0 0,-16.889 z M -190.70854,75.86551 c -15.105,0 -28.824,-6.13 -38.877,-16.064 l 0,14.327 -16.888,0 0,-61.987 16.888,0 0,16.061 c 4.202,17.606 20.449,30.774 38.877,30.774 15.802,0 28.659,-12.856 28.659,-28.658 l 0,-3.931 0,-61.987 16.888,0 0,61.987 0,3.931 c 0,25.115 -20.432,45.547 -45.547,45.547 m -134.64127,-63.723995 61.987,0 0,16.889 c -4.572,26.571 -28.296,46.834 -55.765,46.834 -30.75,0 -55.766,-25.39 -55.766,-56.6 0,-31.209 25.016,-56.601 55.766,-56.601 14.775,0 28.697,5.806 39.203,16.347 1.896,1.902 3.675,3.963 5.287,6.124 l -13.538,10.0970002 c -1.132,-1.518 -2.381,-2.965 -3.712,-4.3 -7.312,-7.3370002 -16.988,-11.3790002 -27.24,-11.3790002 -21.437,0 -38.878,17.8140002 -38.878,39.712 0,21.897 17.441,39.712 38.878,39.712 18.138,0 34.245,-12.756 38.518,-29.946 l -44.74,0 0,-16.889 z"
           inkscape:connector-curvature="0" /></g></g></g></svg>